<svg width="12" height="12" viewBox="0 0 12 12" fill="none" xmlns="http://www.w3.org/2000/svg">
<path d="M1 4.5C1 3.557 1 3.086 1.293 2.793C1.586 2.5 2.057 2.5 3 2.5H9C9.943 2.5 10.414 2.5 10.707 2.793C11 3.086 11 3.557 11 4.5C11 4.7355 11 4.8535 10.927 4.927C10.8535 5 10.735 5 10.5 5H1.5C1.2645 5 1.1465 5 1.073 4.927C1 4.8535 1 4.735 1 4.5ZM1 9C1 9.943 1 10.414 1.293 10.707C1.586 11 2.057 11 3 11H9C9.943 11 10.414 11 10.707 10.707C11 10.414 11 9.943 11 9V6.5C11 6.2645 11 6.1465 10.927 6.073C10.8535 6 10.735 6 10.5 6H1.5C1.2645 6 1.1465 6 1.073 6.073C1 6.1465 1 6.265 1 6.5V9Z" fill="#1A2F1A"/>
<path d="M3.5 1.5V3M8.5 1.5V3" stroke="#1A2F1A" stroke-width="2" stroke-linecap="round"/>
</svg>
