<svg width="30" height="22" viewBox="0 0 30 22" fill="none" xmlns="http://www.w3.org/2000/svg">
<path d="M10.1362 16.8187L26.38 0.575C26.7633 0.191667 27.2105 0 27.7216 0C28.2327 0 28.68 0.191667 29.0633 0.575C29.4466 0.958334 29.6383 1.41386 29.6383 1.94158C29.6383 2.46931 29.4466 2.9242 29.0633 3.30625L11.4779 20.9396C11.0946 21.3229 10.6473 21.5146 10.1362 21.5146C9.62511 21.5146 9.17789 21.3229 8.79455 20.9396L0.552885 12.6979C0.169551 12.3146 -0.0144487 11.8597 0.000884615 11.3333C0.0162179 10.8068 0.21619 10.3513 0.600801 9.96667C0.985412 9.58206 1.44094 9.39039 1.96738 9.39167C2.49383 9.39294 2.94872 9.58461 3.33205 9.96667L10.1362 16.8187Z" fill="#E5E7DD"/>
</svg>
