<svg width="19" height="19" viewBox="0 0 19 19" fill="none" xmlns="http://www.w3.org/2000/svg">
<g clip-path="url(#clip0_3581_258)">
<path fill-rule="evenodd" clip-rule="evenodd" d="M9.96868 18.4124L9.95918 18.414L9.90297 18.4417L9.88714 18.4449L9.87605 18.4417L9.81984 18.4132C9.8114 18.4111 9.80507 18.4127 9.80084 18.418L9.79768 18.4259L9.78422 18.7647L9.78818 18.7806L9.79609 18.7908L9.87843 18.8494L9.8903 18.8526L9.8998 18.8494L9.98214 18.7908L9.99164 18.7782L9.9948 18.7647L9.98134 18.4267C9.97923 18.4182 9.97501 18.4135 9.96868 18.4124ZM10.1777 18.323L10.1666 18.3246L10.0209 18.3982L10.013 18.4061L10.0106 18.4148L10.0249 18.7552L10.0288 18.7647L10.0352 18.7711L10.1943 18.8439C10.2043 18.8465 10.212 18.8444 10.2173 18.8376L10.2204 18.8265L10.1935 18.3404C10.1909 18.3304 10.1856 18.3246 10.1777 18.323ZM9.61163 18.3246C9.60815 18.3224 9.60398 18.3218 9.59999 18.3226C9.59601 18.3235 9.59253 18.3259 9.59026 18.3293L9.58551 18.3404L9.55859 18.8265C9.55912 18.836 9.56361 18.8423 9.57205 18.8455L9.58393 18.8439L9.74305 18.7703L9.75097 18.7639L9.75334 18.7552L9.76759 18.4148L9.76522 18.4053L9.7573 18.3974L9.61163 18.3246Z" fill="#E5E7DD"/>
<path fill-rule="evenodd" clip-rule="evenodd" d="M14.2423 4.75789L4.27359 8.36234L7.59463 10.2845L10.523 7.35535C10.6716 7.2069 10.873 7.12355 11.083 7.12362C11.293 7.1237 11.4944 7.20719 11.6428 7.35574C11.7913 7.50429 11.8746 7.70572 11.8745 7.91573C11.8745 8.12573 11.791 8.32711 11.6424 8.47555L8.71325 11.4047L10.637 14.725L14.2423 4.75789ZM14.498 2.98139C15.444 2.63859 16.3608 3.55534 16.018 4.50139L11.8364 16.0637C11.4928 17.0121 10.1976 17.1277 9.69175 16.2545L7.14496 11.8544L2.74488 9.3076C1.87167 8.80172 1.98725 7.50655 2.93567 7.16297L14.498 2.98139Z" fill="white"/>
</g>
<defs>
<clipPath id="clip0_3581_258">
<rect width="19" height="19" fill="white"/>
</clipPath>
</defs>
</svg>
