<svg width="24" height="24" viewBox="0 0 24 24" fill="none" xmlns="http://www.w3.org/2000/svg">
<path d="M0 24C0 18.9505 4.09339 14.8571 9.14286 14.8571C14.1923 14.8571 18.2857 18.9505 18.2857 24H16C16 20.2129 12.9299 17.1429 9.14286 17.1429C5.35576 17.1429 2.28571 20.2129 2.28571 24H0ZM9.14286 13.7143C5.35429 13.7143 2.28571 10.6457 2.28571 6.85714C2.28571 3.06857 5.35429 0 9.14286 0C12.9314 0 16 3.06857 16 6.85714C16 10.6457 12.9314 13.7143 9.14286 13.7143ZM9.14286 11.4286C11.6686 11.4286 13.7143 9.38286 13.7143 6.85714C13.7143 4.33143 11.6686 2.28571 9.14286 2.28571C6.61714 2.28571 4.57143 4.33143 4.57143 6.85714C4.57143 9.38286 6.61714 11.4286 9.14286 11.4286ZM18.6099 15.6603C21.7879 17.0927 24 20.288 24 24H21.7143C21.7143 21.216 20.0552 18.8195 17.6718 17.7453L18.6099 15.6603ZM17.8242 2.75795C20.1079 3.69946 21.7143 5.94698 21.7143 8.57143C21.7143 11.8517 19.2048 14.5431 16 14.8315V12.531C17.9391 12.2539 19.4286 10.5874 19.4286 8.57143C19.4286 6.99354 18.5161 5.62975 17.1897 4.97869L17.8242 2.75795Z" fill="white"/>
</svg>
