<svg width="24" height="24" viewBox="0 0 24 24" fill="none" xmlns="http://www.w3.org/2000/svg">
<path d="M14.742 16.8724C16.0514 16.8724 16.5601 17.4672 16.9469 18.7853L17.0149 19.0271C17.1968 19.6974 17.3067 19.8983 17.5276 19.9912C17.7865 20.1003 17.9584 20.085 18.2303 19.9422L18.3772 19.8586C18.4292 19.8259 18.4878 19.7878 18.5531 19.7443L19.2158 19.2842C19.8315 18.871 20.3852 18.5976 21.0579 18.4262C21.1539 18.4001 21.254 18.3938 21.3525 18.4076C21.4509 18.4214 21.5457 18.4551 21.6313 18.5066C21.7168 18.5582 21.7915 18.6265 21.851 18.7078C21.9104 18.7891 21.9535 18.8816 21.9776 18.98C22.0017 19.0784 22.0064 19.1807 21.9914 19.2809C21.9765 19.3812 21.9421 19.4774 21.8904 19.564C21.8387 19.6506 21.7706 19.7258 21.6901 19.7853C21.6097 19.8448 21.5184 19.8874 21.4217 19.9106C21.0166 20.0151 20.6301 20.1838 20.2762 20.4105L19.9784 20.6043L19.4986 20.939C19.3113 21.0716 19.1168 21.1932 18.9159 21.3032C18.2732 21.6399 17.6466 21.697 16.9559 21.4052C16.2113 21.093 15.9114 20.6105 15.6306 19.6504L15.4746 19.0964C15.2937 18.4955 15.1698 18.4027 14.743 18.4027C14.4332 18.4027 14.1133 18.5608 13.6745 18.9363L13.4906 19.1005L12.5701 19.9932C11.1628 21.344 9.9624 22 8.24426 22C6.55843 22.0014 5.10316 21.7398 3.87844 21.2154L6.82397 20.3952C7.27041 20.4442 7.74384 20.469 8.24426 20.4697C9.42667 20.4697 10.2752 20.0463 11.3297 19.0791L11.5876 18.8353L12.1193 18.315C12.3552 18.0834 12.5331 17.9171 12.711 17.764C13.3947 17.1795 14.0154 16.8724 14.743 16.8724M19.0219 3.0688C19.692 3.75363 20.0685 4.682 20.0685 5.64995C20.0685 6.61791 19.692 7.54627 19.0219 8.23111L18.734 8.52697C19.8844 9.95528 19.8435 11.4713 18.773 12.567L16.771 14.6075C16.6302 14.7509 16.4394 14.8313 16.2406 14.8312C16.0417 14.831 15.851 14.7501 15.7105 14.6065C15.57 14.4628 15.4912 14.268 15.4914 14.065C15.4916 13.862 15.5708 13.6674 15.7115 13.524L17.7095 11.4856C18.1943 10.9888 18.2493 10.3736 17.6695 9.60943L9.05785 18.4027C8.78086 18.6854 8.43632 18.8894 8.05835 18.9944L2.94591 20.4176C2.81846 20.4529 2.68414 20.4532 2.55654 20.4185C2.42895 20.3838 2.3126 20.3153 2.21927 20.2199C2.12595 20.1246 2.05896 20.0057 2.02508 19.8754C1.99121 19.7452 1.99165 19.6081 2.02637 19.478L3.41967 14.2586C3.52272 13.8731 3.72254 13.5218 3.99938 13.2394L13.9624 3.0688C14.6334 2.38443 15.5431 2 16.4916 2C17.4402 2 18.3509 2.38443 19.0219 3.0688ZM15.0229 4.15023L5.05985 14.3218C4.96769 14.416 4.9012 14.5331 4.86695 14.6616L3.81747 18.5894L7.66555 17.5182C7.79113 17.4828 7.9055 17.4145 7.99738 17.3202L17.9614 7.1507C18.1544 6.95375 18.3074 6.71994 18.4118 6.46262C18.5162 6.2053 18.57 5.9295 18.57 5.65097C18.57 5.37245 18.5162 5.09665 18.4118 4.83933C18.3074 4.58201 18.1544 4.3482 17.9614 4.15125C17.7685 3.9543 17.5394 3.79808 17.2873 3.69149C17.0352 3.58491 16.765 3.53005 16.4921 3.53005C16.2193 3.53005 15.9491 3.58491 15.697 3.69149C15.4449 3.79808 15.2158 3.95328 15.0229 4.15023Z" fill="#759340"/>
</svg>
